<svg xmlns="http://www.w3.org/2000/svg" xmlns:xlink="http://www.w3.org/1999/xlink" width="953.504" height="547" viewBox="0 0 953.504 547"><defs><clipPath id="a"><path d="M0,0H953.5V547H0Z" transform="translate(67.018 4139)" fill="none" stroke="#707070" stroke-width="1"/></clipPath><linearGradient id="b" y1="0.5" x2="0.96" y2="0.342" gradientUnits="objectBoundingBox"><stop offset="0" stop-color="#d8d8d8" stop-opacity="0"/><stop offset="0" stop-color="#d6d6d6" stop-opacity="0.027"/><stop offset="1" stop-color="#828282"/></linearGradient><linearGradient id="c" x1="2.551" y1="0.5" x2="3.551" y2="0.5" gradientUnits="objectBoundingBox"><stop offset="0" stop-color="#d8d8d8" stop-opacity="0"/><stop offset="1" stop-color="#828282"/></linearGradient><linearGradient id="d" x1="0" y1="0.5" x2="1" y2="0.5" xlink:href="#c"/><linearGradient id="f" x1="4.395" y1="0.5" x2="5.395" y2="0.5" xlink:href="#c"/></defs><g transform="translate(-67.018 -4139)" clip-path="url(#a)"><g transform="translate(206 3987.682)"><path d="M1424.538,546.022a70.426,70.426,0,0,1,60.015-49.688,9.134,9.134,0,0,1,14.749,0,70.424,70.424,0,0,1,60.014,49.688Z" transform="translate(-800.409 -185.296)" fill="#3f91eb"/><g transform="translate(-221 151.739)"><g transform="translate(84.657)"><g transform="translate(109.198 0)"><path d="M194.554,0C302,0,389.107,87.1,389.107,194.554S302,389.107,194.554,389.107,0,302,0,194.554,87.1,0,194.554,0Z" transform="translate(163.254 0)" opacity="0.22" fill="url(#b)"/><path d="M1531.713,913.218l-84.358,27.9,16.936,14.114h0l-72.995,76.413-63.983-54.937-255.4,209.271,2.249.035h63.624l188.9-154.78,67.455,57.917,102.315-107.11h0l18.279,15.234Z" transform="translate(-1071.908 -864.358)" fill="#fff"/></g><g transform="translate(0 155.555)"><path d="M834.522,745.194h-193.3v57.319h420.663V745.194Z" transform="translate(-379.652 -584.898)" fill="#e8e8e8"/><path d="M639.268,853.586v24.792H666.5a29.964,29.964,0,0,1,53.8,0H743.81a29.964,29.964,0,0,1,53.8,0h19.815a29.964,29.964,0,0,1,53.8,0h23.516a29.964,29.964,0,0,1,53.8,0H967.7a29.964,29.964,0,0,1,53.8,0h34.987V853.586Z" transform="translate(-378.936 -624.507)" fill="#e8e8e8"/><g transform="translate(260.068 75.92)"><rect width="198.942" height="20.029" transform="translate(0.259 296.653)" fill="#d8d8d8"/><rect width="194.803" height="11.464" transform="translate(0 141.694)" fill="#d8d8d8"/><rect width="193.297" height="4.26" transform="translate(1.506 80.115)" fill="#fff"/><rect width="193.297" height="43.571" transform="translate(1.506 36.544)" fill="#c1c1c1"/><rect width="193.297" height="5.007" transform="translate(1.506 31.536)" fill="#fff"/><rect width="184.799" height="25.036" transform="translate(10.003 6.501)" fill="#c1c1c1"/><rect width="187.43" height="5.271" transform="translate(7.373 4.129)" fill="#fff"/><rect width="182.902" height="4.129" transform="translate(11.9)" fill="#c1c1c1"/><g transform="translate(5.762 156.229)"><g transform="translate(75.734 43.443)"><rect width="11.377" height="8.038" transform="translate(4.132)" fill="#c1c1c1"/><g transform="translate(0 8.027)"><path d="M785.68,939.552H774.125v80.6H785.68v-80.6Z" transform="translate(-769.781 -939.541)" fill="#c1c1c1"/><rect width="18.109" height="6.457" transform="translate(0.895 82.498)" fill="#c1c1c1"/><path d="M783.694,1066.569l3.1,1.885H768.689l3.449-1.885" transform="translate(-767.794 -985.956)" fill="#c1c1c1"/><path d="M787.526,939.592l-4.348,4.368H771.623l-4.344-4.425Z" transform="translate(-767.279 -939.535)" fill="#c1c1c1"/></g></g><g transform="translate(151.533 43.443)"><rect width="11.377" height="8.038" transform="translate(4.132)" fill="#c1c1c1"/><g transform="translate(0 8.027)"><path d="M905.13,939.552H893.574v80.6H905.13v-80.6Z" transform="translate(-889.23 -939.541)" fill="#c1c1c1"/><rect width="18.109" height="6.457" transform="translate(0.895 82.498)" fill="#c1c1c1"/><path d="M903.143,1066.569l3.1,1.885H888.139l3.449-1.885" transform="translate(-887.244 -985.956)" fill="#c1c1c1"/><path d="M906.976,939.592l-4.347,4.368H891.073l-4.344-4.425Z" transform="translate(-886.729 -939.535)" fill="#c1c1c1"/></g></g><g transform="translate(0 43.443)"><rect width="11.377" height="8.038" transform="translate(4.132)" fill="#c1c1c1"/><g transform="translate(0 8.027)"><path d="M666.334,939.552H654.779v80.6h11.555v-80.6Z" transform="translate(-650.435 -939.541)" fill="#c1c1c1"/><rect width="18.109" height="6.457" transform="translate(0.895 82.498)" fill="#c1c1c1"/><path d="M664.348,1066.569l3.1,1.885H649.343l3.449-1.885" transform="translate(-648.449 -985.956)" fill="#c1c1c1"/><path d="M668.18,939.592l-4.347,4.368H652.278l-4.344-4.425Z" transform="translate(-647.934 -939.535)" fill="#c1c1c1"/></g></g><path d="M665.812,901.868c.5-17.659,14.7-31.822,32.152-31.822s31.655,14.163,32.153,31.822h11.42c-.5-24.041-19.853-43.443-43.572-43.443s-43.071,19.4-43.572,43.443Z" transform="translate(-650.294 -858.425)" fill="#c1c1c1"/></g><rect width="42.255" height="20.029" transform="translate(35.356 60.262)" fill="#d8d8d8"/><rect width="27.595" height="70.232" transform="translate(42.772 65.269)" fill="#282828"/><g transform="translate(85.628 156.229)"><path d="M785.211,901.868c.5-17.659,14.7-31.822,32.153-31.822s31.654,14.163,32.152,31.822h11.42c-.5-24.041-19.853-43.443-43.572-43.443s-43.072,19.4-43.572,43.443Z" transform="translate(-773.791 -858.425)" fill="#c1c1c1"/></g><rect width="31.562" height="6.193" transform="translate(40.099 135.501)" fill="#c1c1c1"/><g transform="translate(42.772 72.209)"><path d="M13.8,0h0a13.8,13.8,0,0,1,13.8,13.8v49.5a0,0,0,0,1,0,0H0a0,0,0,0,1,0,0V13.8A13.8,13.8,0,0,1,13.8,0Z" fill="#282828"/><path d="M721.367,729.684a11.638,11.638,0,0,1,11.516,11.731v46.913H709.851V741.415a11.638,11.638,0,0,1,11.516-11.731" transform="translate(-707.57 -727.36)" fill="#fff"/></g><rect width="42.255" height="20.029" transform="translate(106.81 60.262)" fill="#d8d8d8"/><rect width="31.562" height="6.193" transform="translate(111.553 135.501)" fill="#c1c1c1"/><rect width="27.595" height="70.232" transform="translate(114.014 65.269)" fill="#282828"/><g transform="translate(114.226 72.209)"><path d="M13.8,0h0a13.8,13.8,0,0,1,13.8,13.8v49.5a0,0,0,0,1,0,0H0a0,0,0,0,1,0,0V13.8A13.8,13.8,0,0,1,13.8,0Z" fill="#282828"/><path d="M833.969,729.684a11.638,11.638,0,0,1,11.516,11.731v46.913H822.453V741.415a11.638,11.638,0,0,1,11.516-11.731" transform="translate(-820.171 -727.36)" fill="#fff"/></g><g transform="translate(47.213 18.623)"><rect width="19.92" height="12.913" fill="#fff"/><rect width="8.796" height="7.115" transform="translate(5.562 5.798)" fill="#282828"/></g><g transform="translate(118.972 18.623)"><rect width="19.92" height="12.913" fill="#fff"/><rect width="8.796" height="7.115" transform="translate(5.562 5.798)" fill="#282828"/></g></g><rect width="239.313" height="20.029" transform="translate(448.214 372.574)" fill="#d8d8d8"/><rect width="234.334" height="11.464" transform="translate(447.902 217.615)" fill="#d8d8d8"/><rect width="232.523" height="4.26" transform="translate(449.713 156.035)" fill="#fff"/><rect width="232.523" height="43.571" transform="translate(449.713 112.464)" fill="#c1c1c1"/><rect width="232.523" height="5.007" transform="translate(449.713 107.457)" fill="#fff"/><rect width="240.685" height="25.036" transform="translate(441.551 82.421)" fill="#c1c1c1"/><rect width="244.111" height="5.271" transform="translate(438.125 80.049)" fill="#fff"/><rect width="238.215" height="4.129" transform="translate(444.022 75.92)" fill="#c1c1c1"/><g transform="translate(494.089 232.149)"><g transform="translate(75.734 43.443)"><rect width="11.377" height="8.038" transform="translate(4.132)" fill="#c1c1c1"/><g transform="translate(0 8.027)"><path d="M1145.383,939.552h-11.555v80.6h11.555v-80.6Z" transform="translate(-1129.484 -939.541)" fill="#c1c1c1"/><rect width="18.109" height="6.457" transform="translate(0.895 82.498)" fill="#c1c1c1"/><path d="M1143.4,1066.569l3.1,1.885h-18.109l3.449-1.885" transform="translate(-1127.497 -985.956)" fill="#c1c1c1"/><path d="M1147.229,939.592l-4.347,4.368h-11.555l-4.344-4.425Z" transform="translate(-1126.982 -939.535)" fill="#c1c1c1"/></g></g><g transform="translate(151.533 43.443)"><rect width="11.377" height="8.038" transform="translate(4.132)" fill="#c1c1c1"/><g transform="translate(0 8.027)"><path d="M1264.833,939.552h-11.556v80.6h11.556v-80.6Z" transform="translate(-1248.933 -939.541)" fill="#c1c1c1"/><rect width="18.109" height="6.457" transform="translate(0.895 82.498)" fill="#c1c1c1"/><path d="M1262.847,1066.569l3.1,1.885h-18.109l3.449-1.885" transform="translate(-1246.947 -985.956)" fill="#c1c1c1"/><path d="M1266.679,939.592l-4.347,4.368h-11.555l-4.344-4.425Z" transform="translate(-1246.432 -939.535)" fill="#c1c1c1"/></g></g><g transform="translate(0 43.443)"><rect width="11.377" height="8.038" transform="translate(4.132)" fill="#c1c1c1"/><g transform="translate(0 8.027)"><path d="M1026.038,939.552h-11.555v80.6h11.555v-80.6Z" transform="translate(-1010.138 -939.541)" fill="#c1c1c1"/><rect width="18.109" height="6.457" transform="translate(0.895 82.498)" fill="#c1c1c1"/><path d="M1024.051,1066.569l3.1,1.885h-18.109l3.45-1.885" transform="translate(-1008.152 -985.956)" fill="#c1c1c1"/><path d="M1027.883,939.592l-4.347,4.368h-11.555l-4.344-4.425Z" transform="translate(-1007.637 -939.535)" fill="#c1c1c1"/></g></g><path d="M1025.515,901.868c.5-17.659,14.7-31.822,32.152-31.822s31.655,14.163,32.152,31.822h11.42c-.5-24.041-19.853-43.443-43.572-43.443s-43.071,19.4-43.572,43.443Z" transform="translate(-1009.997 -858.425)" fill="#c1c1c1"/></g><rect width="42.255" height="20.029" transform="translate(523.682 136.182)" fill="#d8d8d8"/><rect width="27.595" height="70.232" transform="translate(531.098 141.189)" fill="#282828"/><g transform="translate(573.955 232.149)"><path d="M1144.914,901.868c.5-17.659,14.7-31.822,32.152-31.822s31.655,14.163,32.152,31.822h11.42c-.5-24.041-19.853-43.443-43.572-43.443s-43.072,19.4-43.572,43.443Z" transform="translate(-1133.494 -858.425)" fill="#c1c1c1"/></g><rect width="31.562" height="6.193" transform="translate(528.425 211.422)" fill="#c1c1c1"/><g transform="translate(531.098 148.129)"><path d="M13.8,0h0a13.8,13.8,0,0,1,13.8,13.8v49.5a0,0,0,0,1,0,0H0a0,0,0,0,1,0,0V13.8A13.8,13.8,0,0,1,13.8,0Z" fill="#282828"/><path d="M1081.07,729.684a11.638,11.638,0,0,1,11.516,11.731v46.913h-23.032V741.415a11.638,11.638,0,0,1,11.516-11.731" transform="translate(-1067.272 -727.36)" fill="#fff"/></g><rect width="42.255" height="20.029" transform="translate(445.931 136.182)" fill="#d8d8d8"/><rect width="27.595" height="70.232" transform="translate(453.347 141.189)" fill="#282828"/><rect width="31.562" height="6.193" transform="translate(450.674 211.422)" fill="#c1c1c1"/><g transform="translate(453.347 148.129)"><path d="M13.8,0h0a13.8,13.8,0,0,1,13.8,13.8v49.5a0,0,0,0,1,0,0H0a0,0,0,0,1,0,0V13.8A13.8,13.8,0,0,1,13.8,0Z" fill="#282828"/><path d="M958.545,729.684a11.638,11.638,0,0,1,11.516,11.731v46.913H947.029V741.415a11.638,11.638,0,0,1,11.516-11.731" transform="translate(-944.747 -727.36)" fill="#fff"/></g><rect width="42.255" height="20.029" transform="translate(595.136 136.182)" fill="#d8d8d8"/><rect width="31.562" height="6.193" transform="translate(599.879 211.422)" fill="#c1c1c1"/><rect width="27.595" height="70.232" transform="translate(602.34 141.189)" fill="#282828"/><g transform="translate(602.552 148.129)"><path d="M13.8,0h0a13.8,13.8,0,0,1,13.8,13.8v49.5a0,0,0,0,1,0,0H0a0,0,0,0,1,0,0V13.8A13.8,13.8,0,0,1,13.8,0Z" fill="#282828"/><path d="M1193.672,729.684a11.638,11.638,0,0,1,11.516,11.731v46.913h-23.031V741.415a11.638,11.638,0,0,1,11.516-11.731" transform="translate(-1179.874 -727.36)" fill="#fff"/></g><g transform="translate(535.539 94.544)"><rect width="19.92" height="12.913" fill="#fff"/><rect width="8.796" height="7.115" transform="translate(5.562 5.798)" fill="#282828"/></g><g transform="translate(456.495 94.544)"><rect width="19.92" height="12.913" fill="#fff"/><rect width="8.796" height="7.115" transform="translate(5.562 5.798)" fill="#282828"/></g><g transform="translate(607.299 94.544)"><rect width="19.92" height="12.913" fill="#fff"/><rect width="8.796" height="7.115" transform="translate(5.562 5.798)" fill="#282828"/></g><g transform="translate(417.879 232.149)"><g transform="translate(75.734 43.443)"><rect width="11.377" height="8.038" transform="translate(4.132)" fill="#c1c1c1"/><g transform="translate(0 8.027)"><path d="M1025.287,939.552h-11.555v80.6h11.555v-80.6Z" transform="translate(-1009.388 -939.541)" fill="#c1c1c1"/><rect width="18.109" height="6.457" transform="translate(0.895 82.498)" fill="#c1c1c1"/><path d="M1023.3,1066.569l3.1,1.885H1008.3l3.449-1.885" transform="translate(-1007.401 -985.956)" fill="#c1c1c1"/><path d="M1027.133,939.592l-4.347,4.368H1011.23l-4.344-4.425Z" transform="translate(-1006.886 -939.535)" fill="#c1c1c1"/></g></g><g transform="translate(0 43.443)"><rect width="11.377" height="8.038" transform="translate(4.132)" fill="#c1c1c1"/><g transform="translate(0 8.027)"><path d="M905.941,939.552H894.386v80.6h11.555v-80.6Z" transform="translate(-890.042 -939.541)" fill="#c1c1c1"/><rect width="18.109" height="6.457" transform="translate(0.895 82.498)" fill="#c1c1c1"/><path d="M903.955,1066.569l3.1,1.885H888.95l3.449-1.885" transform="translate(-888.056 -985.956)" fill="#c1c1c1"/><path d="M907.787,939.592l-4.347,4.368H891.884l-4.344-4.425Z" transform="translate(-887.54 -939.535)" fill="#c1c1c1"/></g></g><path d="M905.418,901.868c.5-17.659,14.7-31.822,32.153-31.822s31.655,14.163,32.153,31.822h11.42c-.5-24.041-19.853-43.443-43.572-43.443S894.5,877.826,894,901.868Z" transform="translate(-889.9 -858.425)" fill="#c1c1c1"/></g><rect width="28.549" height="122.017" transform="translate(653.687 250.557)" fill="#c1c1c1"/><rect width="76.741" height="313.527" transform="translate(341.211 408.071) rotate(-180)" opacity="0.47" fill="url(#c)"/><path d="M1447.945,547.882c.093-.438.18-.785.282-1.16s.207-.73.312-1.093q.333-1.078.709-2.132c.5-1.407,1.067-2.779,1.674-4.131a67.085,67.085,0,0,1,4.167-7.812,77.5,77.5,0,0,1,10.947-13.739c2.085-2.051,4.245-4.017,6.511-5.853s4.608-3.568,7.043-5.157a104.244,104.244,0,0,1,15.257-8.332,103.814,103.814,0,0,0-14.791,9c-2.338,1.686-4.562,3.521-6.718,5.419s-4.179,3.944-6.126,6.047a75.53,75.53,0,0,0-10.021,13.853,64.575,64.575,0,0,0-3.647,7.681c-.518,1.315-1,2.644-1.4,3.986-.205.671-.393,1.344-.567,2.017-.08.336-.167.674-.237,1.007s-.143.686-.189.959Z" transform="translate(-674.448 -494.74)" fill="#2683e8"/><rect width="76.741" height="313.527" transform="translate(604.834 84.711)" opacity="0.47" fill="url(#d)"/><path d="M1589.271,548.442c-.044-.273-.114-.632-.188-.959s-.157-.671-.237-1.007q-.261-1.009-.567-2.017c-.407-1.342-.885-2.671-1.4-3.986a64.444,64.444,0,0,0-3.647-7.681,75.491,75.491,0,0,0-10.021-13.853c-1.946-2.1-3.978-4.134-6.125-6.047s-4.381-3.733-6.719-5.419a103.809,103.809,0,0,0-14.791-9,104.2,104.2,0,0,1,15.257,8.332c2.436,1.589,4.768,3.335,7.044,5.157s4.427,3.8,6.511,5.853a77.532,77.532,0,0,1,10.946,13.739,67.029,67.029,0,0,1,4.167,7.812c.607,1.352,1.175,2.724,1.675,4.131q.377,1.053.709,2.132c.1.364.216.722.312,1.093s.19.722.282,1.16Z" transform="translate(-710.124 -494.74)" fill="#2683e8"/><path d="M1531.877,498.474l.474,49.726-3.253-.075Z" transform="translate(-704.103 -494.74)" fill="#2683e8"/><g transform="translate(820.372)"><path d="M1529.187,492.59a9.134,9.134,0,0,0-7.374,3.744h14.748A9.135,9.135,0,0,0,1529.187,492.59Z" transform="translate(-1521.813 -492.59)" fill="#2683e8"/></g><rect width="18.368" height="122.017" transform="translate(260.068 250.557)" fill="#c1c1c1"/><g transform="translate(752.385 163.158)"><rect width="29.34" height="56.397" transform="translate(0.088 0)" fill="#282828"/><path d="M1439.368,754.353v47.1h-20.043v-47.1h20.043m4.648-4.649h-29.34v56.4h29.34V749.7Z" transform="translate(-1414.676 -749.704)" fill="#fff"/></g><g transform="translate(873.173 163.158)"><rect width="29.34" height="56.397" transform="translate(0 0)" fill="#282828"/><path d="M1629.712,754.353v47.1h-20.044v-47.1h20.044m4.648-4.649H1605.02v56.4h29.341V749.7Z" transform="translate(-1605.02 -749.704)" fill="#fff"/></g><g transform="translate(668.889 53.432)"><path d="M1365.891,724.844H1283.1l7.291,8.653h75.5Z" transform="translate(-1283.097 -630.894)" fill="#fff"/><rect width="77.084" height="41.375" transform="translate(82.794 93.951) rotate(-180)" fill="#e8e8e8"/><path d="M1646.965,576.791" transform="translate(-1416.064 -576.791)" fill="#fff"/><path d="M1294.587,738.48V858.037h66.938V738.48" transform="translate(-1287.295 -635.876)" fill="#c1c1c1"/><rect width="75.503" height="5.139" transform="translate(82.794 46.251) rotate(-180)" fill="#e8e8e8"/><path d="M1287.319,649.676h80.115V656h-77.348Z" transform="translate(-1284.64 -603.425)" fill="#fff"/><path d="M1359.173,937.866h-66.411l-4.612-10.981h71.023Z" transform="translate(-1284.943 -704.725)" fill="#e8e8e8"/><rect width="64.303" height="106.029" transform="translate(74.229 339.171) rotate(-180)" fill="#c1c1c1"/><path d="M1299.063,1025.258h60.876a2.324,2.324,0,1,0,0-4.649h-60.876a2.324,2.324,0,1,0,0,4.649Z" transform="translate(-1288.082 -738.974)" fill="#e8e8e8"/><path d="M1348.424,756.833a6.8,6.8,0,0,1,6.792,6.792v43.381h-13.584V763.626a6.8,6.8,0,0,1,6.792-6.792m0-4.648a11.44,11.44,0,0,0-11.441,11.441v48.03h22.881v-48.03a11.44,11.44,0,0,0-11.441-11.441Z" transform="translate(-1302.788 -640.885)" fill="#fff"/><path d="M1334.594,840.5h26.793v5.534h-26.793V840.5Z" transform="translate(-1301.915 -673.159)" fill="#fff"/><path d="M1332.459,965.45h25.49v25.489h-25.49V965.45m-4.649-4.649v34.787H1362.6V960.8Z" transform="translate(-1299.436 -717.118)" fill="#fff"/><rect width="76.741" height="313.527" transform="translate(14.057 40.361)" opacity="0.47" fill="url(#d)"/><path d="M1581.123,964.014H1398.031l-.659-68.519,175.527-1.384Z" transform="translate(-1324.856 -692.748)" fill="#c1c1c1"/><path d="M1564.127,576.792h-148.9l4.744,8.17v25.3h138.093V584.873Z" transform="translate(-1331.382 -576.791)" fill="#d8d8d8"/><line x1="175.251" transform="translate(64.61 27.144)" fill="#fff"/><path d="M1634.857,618.736l-3.426,6.325v28.462l8.17,2.109v25.563h-49.808V618.736Z" transform="translate(-1395.172 -592.119)" fill="#e8e8e8"/><path d="M1384.914,717.161h187.11l-8.433,9.687v72.009h-170.9v-70.5h-.659Z" transform="translate(-1320.303 -628.086)" fill="#d8d8d8"/><path d="M1398.826,721.314" transform="translate(-1325.387 -629.604)" fill="#fff"/><path d="M1401.908,618.736l3.426,6.325v28.462l-8.17,2.108v25.563h49.808V618.736Z" transform="translate(-1324.78 -592.119)" fill="#e8e8e8"/><path d="M1569.209,675.664H1397.165l8.17-2.108H1561.04Z" transform="translate(-1324.78 -612.151)" fill="#d8d8d8"/><path d="M1567.449,617.522h-162.6l7.721-2.108h147.159Z" transform="translate(-1327.588 -590.905)" fill="#d8d8d8"/><path d="M1469.426,605.862h79.324l-2.767,9.048V757.527h-72.6V615.32Z" transform="translate(-1351.186 -587.414)" fill="#c1c1c1"/><g transform="translate(141.559 39.593)"><rect width="33.798" height="33.798" transform="translate(34.263 34.263) rotate(-180)" fill="#282828"/><path d="M1540.9,673.912h-34.728V639.184H1540.9Zm-33.8-.93h32.868V640.114H1507.1Z" transform="translate(-1506.174 -639.184)" fill="#fff"/></g><path d="M0,0H57.978a0,0,0,0,1,0,0V55.87A28.989,28.989,0,0,1,28.989,84.858h0A28.989,28.989,0,0,1,0,55.87V0A0,0,0,0,1,0,0Z" transform="translate(187.78 170.771) rotate(-180)" fill="#282828"/><path d="M1516.9,716.2a24.368,24.368,0,0,1,24.34,24.34v51.221H1492.56V740.544a24.368,24.368,0,0,1,24.34-24.34m-.132-4.648a29.123,29.123,0,0,0-29.121,29.124v56.13h58.242v-56.13a29.122,29.122,0,0,0-29.121-29.124Z" transform="translate(-1357.845 -626.037)" fill="#fff"/><path d="M1396.006,858.9h173.8l2.24-13.623H1393.635Z" transform="translate(-1323.49 -674.904)" fill="#c1c1c1"/><rect width="174.548" height="7.503" transform="translate(247.065 191.503) rotate(-180)" fill="#d8d8d8"/><rect width="180.61" height="11.244" transform="translate(250.754 202.747) rotate(-180)" fill="#e8e8e8"/><path d="M1398.427,943.082h178.15l.967,11.244H1397.372Z" transform="translate(-1324.856 -710.643)" fill="#e8e8e8"/><path d="M1397.372,974.368h181.455l.878,11.244H1397.372Z" transform="translate(-1324.856 -722.076)" fill="#e8e8e8"/><rect width="50.072" height="50.072" transform="translate(189.438 282.51) rotate(-180)" fill="#e8e8e8"/><path d="M1398.031,1004.269H1585.8l1.406,11.244H1397.372Z" transform="translate(-1324.856 -733.003)" fill="#e8e8e8"/><path d="M1397.372,910.966H1574.2l.461,11.244H1397.372Z" transform="translate(-1324.856 -698.907)" fill="#e8e8e8"/><rect width="33.381" height="44.45" transform="translate(181.005 282.51) rotate(-180)" fill="#282828"/><path d="M1592.692,1052.822l-6.852-26.266H1393.635v26.266Z" transform="translate(-1323.49 -741.147)" fill="#c1c1c1"/><path d="M1602.063,1103.217l-8.258-32.986H1394.76v32.986Z" transform="translate(-1323.901 -757.107)" fill="#d8d8d8"/><path d="M1388.767,1071.217h204.9a2.324,2.324,0,0,0,0-4.648h-204.9a2.324,2.324,0,1,0,0,4.648Z" transform="translate(-1320.862 -755.769)" fill="#e8e8e8"/><path d="M1387.728,1025.258h197.784a2.324,2.324,0,0,0,0-4.649H1387.728a2.324,2.324,0,0,0,0,4.649Z" transform="translate(-1320.483 -738.974)" fill="#e8e8e8"/></g><g transform="translate(0 53.432)"><path d="M536.894,724.844h82.794L612.4,733.5h-75.5Z" transform="translate(-341.526 -630.894)" fill="#fff"/><rect width="77.084" height="41.375" transform="translate(195.368 52.576)" fill="#e8e8e8"/><path d="M303.5,576.791" transform="translate(-256.237 -576.791)" fill="#fff"/><path d="M617.329,738.48V858.037H550.391V738.48" transform="translate(-346.458 -635.876)" fill="#c1c1c1"/><rect width="75.503" height="5.139" transform="translate(195.368 41.112)" fill="#e8e8e8"/><path d="M617.009,649.676H536.894V656h77.348Z" transform="translate(-341.526 -603.425)" fill="#fff"/><path d="M550.391,937.866H616.8l4.612-10.981H550.391Z" transform="translate(-346.458 -704.725)" fill="#e8e8e8"/><rect width="64.303" height="106.029" transform="translate(203.933 233.141)" fill="#c1c1c1"/><path d="M613.667,1025.258H552.791a2.324,2.324,0,1,1,0-4.649h60.877a2.324,2.324,0,0,1,0,4.649Z" transform="translate(-346.486 -738.974)" fill="#e8e8e8"/><path d="M600.44,840.5H573.648v5.534H600.44V840.5Z" transform="translate(-354.957 -673.159)" fill="#fff"/><path d="M597.971,965.45v25.489h-25.49V965.45h25.49m4.648-4.649v34.787H567.833V960.8Z" transform="translate(-352.832 -717.118)" fill="#fff"/><rect width="76.741" height="313.527" transform="translate(270.457 354.639) rotate(-180)" opacity="0.47" fill="url(#f)"/><path d="M263.526,964.014H446.617l.659-68.519-175.527-1.384Z" transform="translate(-241.631 -692.748)" fill="#c1c1c1"/><path d="M300.591,576.792h148.9l-4.744,8.17v25.3H306.652V584.873Z" transform="translate(-255.175 -576.791)" fill="#d8d8d8"/><line x2="175.251" transform="translate(38.301 27.144)" fill="#fff"/><path d="M286.923,618.736l3.426,6.325v28.462l-8.17,2.109v25.563h49.808V618.736Z" transform="translate(-248.447 -592.119)" fill="#e8e8e8"/><path d="M457.8,717.161H270.69l8.433,9.687v72.009h170.9v-70.5h.659Z" transform="translate(-244.248 -628.086)" fill="#d8d8d8"/><path d="M551.637,721.314" transform="translate(-346.914 -629.604)" fill="#fff"/><path d="M519.872,618.736l-3.426,6.325v28.462l8.17,2.108v25.563H474.807V618.736Z" transform="translate(-318.838 -592.119)" fill="#e8e8e8"/><path d="M282.18,675.664H454.224l-8.17-2.108H290.349Z" transform="translate(-248.447 -612.151)" fill="#d8d8d8"/><path d="M289.378,617.522h162.6l-7.721-2.108H297.1Z" transform="translate(-251.078 -590.905)" fill="#d8d8d8"/><path d="M435.357,605.862H356.033l2.767,9.048V757.527h72.6V615.32Z" transform="translate(-275.435 -587.414)" fill="#c1c1c1"/><path d="M451.715,858.9h-173.8l-2.24-13.623H454.087Z" transform="translate(-246.069 -674.904)" fill="#c1c1c1"/><rect width="174.548" height="7.503" transform="translate(31.097 183.999)" fill="#d8d8d8"/><rect width="180.61" height="11.244" transform="translate(27.408 191.503)" fill="#e8e8e8"/><path d="M448.283,943.082H270.133l-.966,11.244h180.17Z" transform="translate(-243.692 -710.643)" fill="#e8e8e8"/><path d="M448.092,974.368H266.637l-.879,11.244H448.092Z" transform="translate(-242.446 -722.076)" fill="#e8e8e8"/><rect width="50.072" height="50.072" transform="translate(88.724 232.439)" fill="#e8e8e8"/><path d="M443.114,1004.269H255.345l-1.406,11.244H443.773Z" transform="translate(-238.127 -733.003)" fill="#e8e8e8"/><path d="M450.994,910.966H274.162L273.7,922.21H450.994Z" transform="translate(-245.349 -698.907)" fill="#e8e8e8"/><rect width="33.381" height="44.45" transform="translate(97.157 238.061)" fill="#282828"/><path d="M243.142,1052.822l6.852-26.266H442.2v26.266Z" transform="translate(-234.182 -741.147)" fill="#c1c1c1"/><path d="M229.022,1103.217l8.257-32.986H436.326v32.986Z" transform="translate(-229.022 -757.107)" fill="#d8d8d8"/><path d="M441.027,1071.217h-204.9a2.324,2.324,0,0,1,0-4.648h204.9a2.324,2.324,0,1,1,0,4.648Z" transform="translate(-230.769 -755.769)" fill="#e8e8e8"/><path d="M446.162,1025.258H248.379a2.324,2.324,0,0,1,0-4.649H446.162a2.324,2.324,0,1,1,0,4.649Z" transform="translate(-235.246 -738.974)" fill="#e8e8e8"/></g></g><g transform="translate(103.653 248.131)"><rect width="33.798" height="33.798" transform="translate(34.264 34.264) rotate(-180)" fill="#282828"/><path d="M427.093,673.205H392.365V638.477h34.728Zm-33.8-.93h32.869V639.407H393.295Z" transform="translate(-392.365 -638.477)" fill="#fff"/></g><path d="M0,0H57.978a0,0,0,0,1,0,0V55.87A28.989,28.989,0,0,1,28.989,84.858h0A28.989,28.989,0,0,1,0,55.87V0A0,0,0,0,1,0,0Z" transform="translate(149.875 379.31) rotate(180)" fill="#282828"/><path d="M403.091,715.5a24.368,24.368,0,0,1,24.341,24.34v51.221H378.751V739.837a24.368,24.368,0,0,1,24.34-24.34m-.131-4.649a29.122,29.122,0,0,0-29.121,29.125V796.1H432.08V739.973a29.123,29.123,0,0,0-29.121-29.125Z" transform="translate(-281.942 -416.792)" fill="#fff"/><path d="M588.17,752.474a6.8,6.8,0,0,1,6.792,6.792v43.382H581.378V759.267a6.8,6.8,0,0,1,6.792-6.792m0-4.648a11.441,11.441,0,0,0-11.441,11.441V807.3H599.61v-48.03a11.44,11.44,0,0,0-11.441-11.441Z" transform="translate(-356.083 -430.305)" fill="#fff"/><g transform="translate(435.071 271.897)"><g transform="translate(0 0)"><path d="M916.452,681.5c-1.408,1.615-2.709,4.011-1.017,5.841-.852,1.789-.7,3.185-.01,4.081.929,1.209,2.239,1.052,3.448.556a9.748,9.748,0,0,0,2.459-1.412c.616-.5,1.751-1.619,1.272-2.5-.275-.5-.9-.293-1.657-.324-1.6-.065-1.143-.836-.509-1.6.478-.312,1.008-.633,1.327.063l.407-1.186c-.96-.59-1.525-.008-2.024.579-1.174,1.387-1.453,3.754,1.307,3.227.376-.072.728.086.4.5a3.24,3.24,0,0,1-.969.63A15.76,15.76,0,0,1,918.507,691a2.372,2.372,0,0,1-2.534-.286c-.875-.782-.72-1.711-.3-3.379.091-.1.177-.191.258-.272a2.192,2.192,0,0,0,.923-1.676c.077-.593-.04-.874-.289-.069-.241.777-.843,1.23-1.241,0s.49-2.55,1.184-3.59c.161-.249.361-.713-.057-.232" transform="translate(-914.634 -677.886)" fill="#282828" fill-rule="evenodd"/><path d="M916.684,699.33l-.568.917,1.244.945.576-.745.891.5.668-.986-1.235-.8-.6.8Z" transform="translate(-915.176 -684.417)" fill="#282828" fill-rule="evenodd"/><path d="M928.959,684.566l-.43,1.112-1.316-.9.367-1.012Z" transform="translate(-919.231 -678.794)" fill="#282828" fill-rule="evenodd"/><path d="M924.439,691.732l-2.781.4,4.022-2.522.452-.284a14.077,14.077,0,0,0,1.376-1.157c.932-.925.619-1.312.14-2.43l-.178-.4.4-1.011.2.275a1.544,1.544,0,0,0,2.666.349c.444-.521-.387-1.057-.8-1.315a13.51,13.51,0,0,1-3.207-2.963l.256-1.453a29.543,29.543,0,0,1,5.6-2.845c1.407-.444,2.09-.76,2.067.06-.029,1.1-1.187,3.04-1.706,4.075.963-2.63,2.548-4.235-.868-2.986a23.19,23.19,0,0,0-4.54,2.3l.934.782c-.5.126-.748.092-.524.286.352.307.782.61,1.155.9l.958.793a5.426,5.426,0,0,1,.786.708,1.587,1.587,0,0,1,.43,1.653c-.471,1.556-1.253,1.533-2.626,1.571.066,1.307-.829,2.154-.639,3.077a1.9,1.9,0,0,0,.822,1.189c.98.633,2.227.2,3.342-.478a7.731,7.731,0,0,0,2.517-2.22l-.229-.657-.582-1.088.3-1.034c.769,1.188.972,1.137,2.327.808l-.659-7.3-.279-.556.4-1.034,1.392,2.678-.128.05-.782-.353.582,6.164a2.742,2.742,0,0,1,1.086-.433c1.118.129.906,1.59.252,2.607-.638.995-.991.682-1.642-.885a4.377,4.377,0,0,1-1.694.278c.037,2.009-.654,2.524-2.345,3.674-1.444.986-3.29,1.81-4.491.536-.5-.527-.565-1.1-.64-2.319Zm13.714-5.3a.5.5,0,0,0-.6,0c-.3.249-.123.645.167.831.532.341,1.02-.5.432-.831" transform="translate(-917.201 -675.928)" fill="#282828" fill-rule="evenodd"/><path d="M949.085,689.948a23.594,23.594,0,0,0-.169-3.247c-.2-1.364-.4-2.71-.576-4.075-.117-.9-.157-1.782-.214-2.687l-.379-.657.5-.859,1.47,2.825-.105.029-.708-.379c.221,1.937.433,3.868.68,5.8a4.924,4.924,0,0,1-.5,3.247" transform="translate(-926.734 -676.84)" fill="#282828" fill-rule="evenodd"/><path d="M954.455,700.98,953.28,700l.6-1.061,1.138.846.619-.9,1.224,1-.757,1.026-1.127-.86Z" transform="translate(-928.756 -684.319)" fill="#282828" fill-rule="evenodd"/><path d="M962.144,700.65l-1.213-.972.656-.986,1.339.986Z" transform="translate(-931.552 -684.247)" fill="#282828" fill-rule="evenodd"/><path d="M967.5,701.135l-1.353-1.069.545-1.149,1.186.808.519-.834,1.554.986-.53,1-1.433-.845Z" transform="translate(-933.458 -684.319)" fill="#282828" fill-rule="evenodd"/><path d="M964.726,677.15l-7.773,4.321-.367,1.249,7.724-4.358Z" transform="translate(-929.964 -676.374)" fill="#282828" fill-rule="evenodd"/><path d="M952.935,677.838l-.53,1.187.53,6.485.132.931a3.757,3.757,0,0,0,.71,2.272c.588.669.949.856,1.505.742a2.428,2.428,0,0,0,1.41-.911c.192-.187.35-.411.447-.12a1.929,1.929,0,0,0,.573.876c.6.475.96.3,1.23-.106.16-.244.252-.416.392-.622.3-.43.4-.4.565-.124a2.07,2.07,0,0,0,.919.866,2.937,2.937,0,0,0,3.094-.567c.286-.206.49-.467.8-.524.206-.034.233-.029.3.135.21.5.373.765.746.836.716.138,1.015-.427,1.4-.932a5.4,5.4,0,0,0,.447-3.5c-.28-1.762-.711-3.528-.825-5.307l.519.393.429.278-1.327-2.957-.57.948.47.771a1,1,0,0,0-.1.441,55.981,55.981,0,0,0,.685,5.605c.229,1.183.441,2.7-.2,3.074-1.161.674-1.046-.991-.975-1.5l-1.213.859c-1.737.958-2.835,1.539-4.012.272A10.255,10.255,0,0,1,959,684.245l-.252,1.3.645,1.567.089.341c-.492.82-1.041,1.069-1.711.55-.366-.284-.295-.736-.349-1.209a5.683,5.683,0,0,1-2.213,1.269,1.013,1.013,0,0,1-1.044-.461,3.424,3.424,0,0,1-.395-1.366c-.173-1.052-.23-2.276-.327-3.181Z" transform="translate(-928.436 -676.381)" fill="#282828" fill-rule="evenodd"/><path d="M979.44,678.278c-1.245,1.544-1.688,3.627-.947,4.4-.117.391-.689,2.8.492,3.859a2.9,2.9,0,0,0,1.591.7,14.915,14.915,0,0,0-1.119,2.115,4.228,4.228,0,0,0-.309,1.119,2.349,2.349,0,0,0,.232,1.456,1.441,1.441,0,0,0,1.9.647,10.166,10.166,0,0,0,2.23-2.015,7.318,7.318,0,0,1,1.427-1.309,5.576,5.576,0,0,1,1.431-.713c1.46-.4,1.831.39,2.755,1.352a6.44,6.44,0,0,0-.7,2.292c.4-.739.751-1.5,1.156-2.106,2.069.468,4.54.711,6.466-.4a4.555,4.555,0,0,0,1.365-1.243c.453-.542.375-.358.654.057.668,1,1.915,1.533,2.407.026a2.214,2.214,0,0,0-.232-2.006c-.51-.653-1.368-.462-2.047.327l-.751.874a4.028,4.028,0,0,1-2.565,1.507c-.518.057-.719-.034-.1-.647a2.714,2.714,0,0,0,.954-1.625,1.624,1.624,0,0,0-.867-1.662c-.66-.378-1.528-.163-2.491.536a12.261,12.261,0,0,0-2.628,3.045c-.478-.209-.448-.294-.8-.676a2.094,2.094,0,0,0-2.634-.794,4.609,4.609,0,0,0-1.795,1.129c-.481.453-.876.906-1.441,1.476a6.588,6.588,0,0,1-2.109,1.6.943.943,0,0,1-1.127-.3,1.365,1.365,0,0,1-.2-.849,2.715,2.715,0,0,1,.263-1,11.951,11.951,0,0,1,1.155-2.143,16.945,16.945,0,0,0,7.773-1.427c1.553-.713,1.786-2.084.9-3.7a3.318,3.318,0,0,0-1.436-1.347.917.917,0,0,0-1.34.321,2.907,2.907,0,0,0-.347,1.421c-.077.837.152,1.112,1.487.966a7.919,7.919,0,0,1,.964-.069c.327.012.464.115.649.7.159.5-.616.773-1.553,1.02a20.7,20.7,0,0,1-6.674,1.006,3.531,3.531,0,0,1-1.882-.5c-.865-.553-.918-1.272-.692-2.874.55-.464.817-.541,1.032-1.249a3.031,3.031,0,0,0,.114-.9,3.964,3.964,0,0,1-.7.98c-.289.2-.521-.156-.593-.784a5.015,5.015,0,0,1,.792-2.51c.061-.138-.021-.187-.112-.074m9.041,4.324c.25-.335-.677-1.4-1.23-.753-.4.464.181.831.683.89a.606.606,0,0,0,.547-.137m1.754,6.454a5.193,5.193,0,0,0,4.1-.754c.6-.367.971-.829.269-1.6a1.483,1.483,0,0,0-.817-.452c-.671-.152-2.341.7-3.549,2.811m9.769-.843c.117-.037.1-.09.023-.353a1.192,1.192,0,0,0-.439-.673c-.376-.335-.638-.344-.968.043-.666.779.836,1.157,1.384.983" transform="translate(-937.838 -676.764)" fill="#282828" fill-rule="evenodd"/><path d="M989.173,683.033l-1.164-1.023.445-.986,1.227.974Z" transform="translate(-941.447 -677.79)" fill="#282828" fill-rule="evenodd"/><path d="M1000.735,679.9l7-3.261-.794,1.212-6.9,3.224Z" transform="translate(-945.844 -676.19)" fill="#282828" fill-rule="evenodd"/></g></g></g><rect width="1053" height="59" transform="translate(0 546.579)" fill="#fff"/><g transform="translate(301.756 16.845)"><g transform="translate(393.407 44.815)"><path d="M1947.97,961.018a5.332,5.332,0,0,1,.7-1.116h0l0,0a5.353,5.353,0,0,1,.684-.692l1.031-1.046.271.2c5.28-2.585,16.184.154,27.214,7.356,13.332,8.7,21.889,20.687,19.421,27.057l.376.278-1.483,1.477c-.071.075-.144.147-.219.218l-.042.042-.013.009a6.063,6.063,0,0,1-1.282.892l-.008.005h0c-5.212,2.731-16.232.012-27.384-7.269C1953.662,979.56,1945.034,967.289,1947.97,961.018Z" transform="translate(-1947.397 -955.821)" fill="#c1c1c1"/><path d="M1980.548,963.046c-13.58-8.866-26.97-10.969-29.907-4.7s5.692,18.542,19.272,27.408,26.97,10.97,29.906,4.7S1994.128,971.913,1980.548,963.046Z" transform="translate(-1948.482 -954.736)" fill="#e8e8e8"/><g transform="translate(4.719 2.283)"><path d="M1972.81,985.542a53.5,53.5,0,0,1-13.791-12.633c-3.284-4.528-4.418-8.493-3.194-11.163a5.174,5.174,0,0,1,3.493-2.786c5.012-1.443,13.891,1.318,22.62,7.034h0a53.5,53.5,0,0,1,13.791,12.634c3.284,4.529,4.418,8.493,3.194,11.163a5.173,5.173,0,0,1-3.493,2.786,10.825,10.825,0,0,1-2.989.379C1987.294,992.955,1980,990.251,1972.81,985.542Zm-13.216-25.625a4.227,4.227,0,0,0-2.863,2.244c-1.053,2.3.076,6,3.1,10.163a52.484,52.484,0,0,0,13.53,12.385c6.961,4.559,14.194,7.247,19.118,7.247a9.762,9.762,0,0,0,2.681-.336,4.224,4.224,0,0,0,2.863-2.244c1.052-2.295-.075-6-3.1-10.163a52.49,52.49,0,0,0-13.53-12.385c-6.962-4.559-14.195-7.246-19.119-7.246A9.737,9.737,0,0,0,1959.594,959.917Z" transform="translate(-1955.345 -958.582)" fill="#c1c1c1"/></g></g><g transform="translate(156.087 80.346)"><path d="M2086.229,425.108a3.758,3.758,0,0,1,.5-.792h0l0,0a3.927,3.927,0,0,1,.485-.491l.732-.743.193.143c3.748-1.835,11.49.11,19.321,5.222,9.464,6.179,15.54,14.687,13.787,19.208l.267.2-1.053,1.049q-.076.079-.156.154l-.03.03-.009.007a4.3,4.3,0,0,1-.91.633l-.005,0h0c-3.7,1.939-11.524.008-19.441-5.16C2090.271,438.272,2084.145,429.56,2086.229,425.108Z" transform="translate(-2085.822 -421.418)" fill="#c1c1c1"/><path d="M2109.357,426.547c-9.641-6.294-19.147-7.788-21.232-3.336s4.04,13.163,13.682,19.458,19.147,7.788,21.232,3.336S2119,432.842,2109.357,426.547Z" transform="translate(-2086.593 -420.648)" fill="#e8e8e8"/><g transform="translate(3.35 1.621)"><path d="M2103.864,442.519a38,38,0,0,1-9.792-8.969c-2.33-3.215-3.136-6.029-2.267-7.925a3.676,3.676,0,0,1,2.48-1.978c3.558-1.024,9.862.936,16.06,4.994h0a37.976,37.976,0,0,1,9.791,8.969c2.332,3.215,3.136,6.03,2.267,7.925a3.672,3.672,0,0,1-2.479,1.978,7.657,7.657,0,0,1-2.123.268C2114.146,447.78,2108.969,445.862,2103.864,442.519Zm-9.383-18.192a3,3,0,0,0-2.033,1.593c-.747,1.629.054,4.259,2.2,7.215a37.269,37.269,0,0,0,9.606,8.792c4.942,3.237,10.077,5.145,13.572,5.145a6.924,6.924,0,0,0,1.9-.239,3,3,0,0,0,2.032-1.593c.748-1.629-.053-4.26-2.2-7.215a37.261,37.261,0,0,0-9.606-8.792c-4.942-3.237-10.076-5.145-13.572-5.145A6.922,6.922,0,0,0,2094.481,424.326Z" transform="translate(-2091.464 -423.378)" fill="#c1c1c1"/></g></g><g transform="translate(407.386 161.793)"><path d="M2119.927,850.446a3.907,3.907,0,0,0-.514-.815h0l0,0a4.033,4.033,0,0,0-.5-.505l-.755-.765-.2.146c-3.858-1.889-11.825.113-19.886,5.376-9.741,6.36-15.994,15.117-14.19,19.771l-.275.2,1.083,1.079c.052.055.1.107.16.16l.03.03.01.006a4.427,4.427,0,0,0,.937.652l.006,0h0c3.809,2,11.862.009,20.01-5.311C2115.767,864,2122.072,855.029,2119.927,850.446Z" transform="translate(-2082.413 -846.649)" fill="#c1c1c1"/><path d="M2096.121,851.928c9.924-6.478,19.707-8.016,21.854-3.434s-4.159,13.549-14.083,20.028-19.707,8.016-21.854,3.434S2086.2,858.407,2096.121,851.928Z" transform="translate(-2081.619 -845.856)" fill="#e8e8e8"/><g transform="translate(2.289 1.669)"><path d="M2090.562,873.783a7.907,7.907,0,0,1-2.184-.276,3.782,3.782,0,0,1-2.552-2.036c-.895-1.951-.066-4.848,2.334-8.157a39.088,39.088,0,0,1,10.077-9.232h0c6.38-4.178,12.868-6.2,16.53-5.14a3.781,3.781,0,0,1,2.552,2.035c.895,1.951.066,4.848-2.334,8.157a39.089,39.089,0,0,1-10.077,9.232C2099.653,871.808,2094.324,873.783,2090.562,873.783Zm22.044-24.387c-3.6,0-8.884,1.965-13.97,5.3a38.375,38.375,0,0,0-9.887,9.05c-2.206,3.042-3.031,5.749-2.261,7.426a3.086,3.086,0,0,0,2.092,1.64,7.123,7.123,0,0,0,1.959.245c3.6,0,8.883-1.964,13.97-5.3a38.382,38.382,0,0,0,9.886-9.05c2.206-3.042,3.031-5.749,2.261-7.427a3.084,3.084,0,0,0-2.092-1.639A7.1,7.1,0,0,0,2112.606,849.4Z" transform="translate(-2085.475 -848.666)" fill="#c1c1c1"/></g></g><g transform="translate(255.943)"><path d="M1955.282,551.513a2.378,2.378,0,0,1,.312-.5h0v0a2.436,2.436,0,0,1,.3-.308l.459-.465.121.089c2.347-1.15,7.194.069,12.1,3.27,5.926,3.869,9.73,9.2,8.633,12.027l.167.123-.658.657-.1.1-.02.019-.005,0a2.721,2.721,0,0,1-.57.4l0,0h0c-2.318,1.214-7.217.006-12.172-3.231C1957.812,559.755,1953.977,554.3,1955.282,551.513Z" transform="translate(-1955.027 -549.203)" fill="#c1c1c1"/><path d="M1969.762,552.415c-6.037-3.941-11.988-4.876-13.293-2.089s2.529,8.242,8.565,12.183,11.989,4.876,13.294,2.089S1975.8,556.355,1969.762,552.415Z" transform="translate(-1955.509 -548.721)" fill="#e8e8e8"/><g transform="translate(2.097 1.015)"><path d="M1966.323,562.414a23.787,23.787,0,0,1-6.131-5.616c-1.459-2.013-1.964-3.775-1.42-4.962a2.3,2.3,0,0,1,1.552-1.239c2.228-.641,6.175.586,10.056,3.127h0a23.755,23.755,0,0,1,6.13,5.616c1.46,2.013,1.965,3.775,1.421,4.961a2.3,2.3,0,0,1-1.553,1.239,4.8,4.8,0,0,1-1.328.169C1972.761,565.709,1969.519,564.507,1966.323,562.414Zm-5.875-11.39a1.874,1.874,0,0,0-1.272,1c-.468,1.02.033,2.667,1.376,4.517a23.316,23.316,0,0,0,6.014,5.505c3.095,2.026,6.31,3.222,8.5,3.221a4.339,4.339,0,0,0,1.192-.149,1.876,1.876,0,0,0,1.272-1c.469-1.02-.033-2.667-1.375-4.517a23.332,23.332,0,0,0-6.015-5.505c-3.094-2.027-6.309-3.222-8.5-3.222A4.336,4.336,0,0,0,1960.448,551.024Z" transform="translate(-1958.559 -550.43)" fill="#c1c1c1"/></g></g><g transform="translate(0 174.498)"><path d="M1167.013,872.534a4.46,4.46,0,0,0-.591-.937h0l0,0a4.541,4.541,0,0,0-.573-.582l-.867-.879-.228.168c-4.437-2.172-13.6.13-22.87,6.182-11.2,7.314-18.4,17.385-16.321,22.737l-.316.233,1.246,1.242c.059.063.121.123.184.183l.035.035.011.008a5.13,5.13,0,0,0,1.078.75l.006,0h0c4.381,2.3,13.642.01,23.013-6.108C1162.23,888.117,1169.481,877.8,1167.013,872.534Z" transform="translate(-1123.87 -868.166)" fill="#c1c1c1"/><path d="M1139.635,874.238c11.412-7.451,22.665-9.218,25.133-3.948s-4.783,15.582-16.2,23.032-22.665,9.219-25.133,3.949S1128.223,881.689,1139.635,874.238Z" transform="translate(-1122.957 -867.254)" fill="#e8e8e8"/><g transform="translate(2.633 1.919)"><path d="M1133.242,899.373a9.089,9.089,0,0,1-2.512-.318,4.346,4.346,0,0,1-2.935-2.341c-1.029-2.244-.076-5.575,2.684-9.381a44.968,44.968,0,0,1,11.59-10.617h0c7.336-4.8,14.8-7.124,19.01-5.911a4.345,4.345,0,0,1,2.935,2.341c1.03,2.244.076,5.575-2.684,9.381a44.96,44.96,0,0,1-11.59,10.617C1143.7,897.1,1137.569,899.373,1133.242,899.373Zm25.352-28.046c-4.138,0-10.216,2.259-16.067,6.089a44.115,44.115,0,0,0-11.37,10.408c-2.538,3.5-3.486,6.612-2.6,8.54a3.551,3.551,0,0,0,2.406,1.886,8.189,8.189,0,0,0,2.253.283c4.139,0,10.217-2.259,16.067-6.09a44.1,44.1,0,0,0,11.37-10.408c2.538-3.5,3.485-6.612,2.6-8.541a3.55,3.55,0,0,0-2.406-1.885A8.168,8.168,0,0,0,1158.594,871.326Z" transform="translate(-1127.392 -870.487)" fill="#c1c1c1"/></g></g><g transform="translate(48.936 32.029)"><path d="M1175.225,700.535a3.285,3.285,0,0,1,.439-.7h0l0,0a3.328,3.328,0,0,1,.427-.433l.645-.654.169.125c3.3-1.616,10.116.1,17.01,4.6,8.332,5.44,13.681,12.93,12.138,16.911l.235.173-.927.923c-.044.047-.089.093-.137.137l-.026.026-.008.006a3.783,3.783,0,0,1-.8.557l0,0h0c-3.258,1.707-10.147.008-17.116-4.543C1178.783,712.125,1173.39,704.455,1175.225,700.535Z" transform="translate(-1174.867 -697.287)" fill="#c1c1c1"/><path d="M1195.587,701.8c-8.488-5.542-16.857-6.856-18.692-2.937s3.557,11.589,12.045,17.131,16.857,6.856,18.693,2.937S1204.075,707.344,1195.587,701.8Z" transform="translate(-1175.545 -696.609)" fill="#e8e8e8"/><g transform="translate(2.949 1.427)"><path d="M1190.75,715.864a33.431,33.431,0,0,1-8.62-7.9c-2.053-2.831-2.762-5.308-2-6.977a3.234,3.234,0,0,1,2.183-1.742c3.132-.9,8.682.823,14.139,4.4h0a33.443,33.443,0,0,1,8.62,7.9c2.053,2.83,2.761,5.308,2,6.977a3.237,3.237,0,0,1-2.183,1.741,6.774,6.774,0,0,1-1.868.236C1199.8,720.5,1195.245,718.807,1190.75,715.864Zm-8.261-16.017a2.639,2.639,0,0,0-1.79,1.4c-.658,1.434.047,3.75,1.934,6.352a32.788,32.788,0,0,0,8.457,7.741c4.351,2.849,8.872,4.53,11.95,4.53a6.082,6.082,0,0,0,1.675-.21,2.638,2.638,0,0,0,1.79-1.4c.658-1.435-.047-3.75-1.934-6.352a32.8,32.8,0,0,0-8.457-7.741c-4.351-2.849-8.872-4.529-11.95-4.529A6.091,6.091,0,0,0,1182.49,699.847Z" transform="translate(-1179.834 -699.012)" fill="#c1c1c1"/></g></g></g></g><path d="M1424.538,546.022a70.426,70.426,0,0,1,60.015-49.688,9.134,9.134,0,0,1,14.749,0,70.424,70.424,0,0,1,60.014,49.688Z" transform="translate(-1507.409 -185.296)" fill="#3f91eb"/><path d="M1447.945,547.882c.093-.438.18-.785.282-1.16s.207-.73.312-1.093q.333-1.078.709-2.132c.5-1.407,1.067-2.779,1.674-4.131a67.085,67.085,0,0,1,4.167-7.812,77.5,77.5,0,0,1,10.947-13.739c2.085-2.051,4.245-4.017,6.511-5.853s4.608-3.568,7.043-5.157a104.244,104.244,0,0,1,15.257-8.332,103.814,103.814,0,0,0-14.791,9c-2.338,1.686-4.562,3.521-6.718,5.419s-4.179,3.944-6.126,6.047a75.53,75.53,0,0,0-10.021,13.853,64.575,64.575,0,0,0-3.647,7.681c-.518,1.315-1,2.644-1.4,3.986-.205.671-.393,1.344-.567,2.017-.08.336-.167.674-.237,1.007s-.143.686-.189.959Z" transform="translate(-1517.854 -187.446)" fill="#2683e8"/><path d="M1589.271,548.442c-.044-.273-.114-.632-.188-.959s-.157-.671-.237-1.007q-.261-1.009-.567-2.017c-.407-1.342-.885-2.671-1.4-3.986a64.444,64.444,0,0,0-3.647-7.681,75.491,75.491,0,0,0-10.021-13.853c-1.946-2.1-3.978-4.134-6.125-6.047s-4.381-3.733-6.719-5.419a103.809,103.809,0,0,0-14.791-9,104.2,104.2,0,0,1,15.257,8.332c2.436,1.589,4.768,3.335,7.044,5.157s4.427,3.8,6.511,5.853a77.532,77.532,0,0,1,10.946,13.739,67.029,67.029,0,0,1,4.167,7.812c.607,1.352,1.175,2.724,1.675,4.131q.377,1.053.709,2.132c.1.364.216.722.312,1.093s.19.722.282,1.16Z" transform="translate(-1553.53 -187.446)" fill="#2683e8"/><path d="M1531.877,498.474l.474,49.726-3.253-.075Z" transform="translate(-1547.509 -187.446)" fill="#2683e8"/><g transform="translate(-23.034 307.294)"><path d="M1529.187,492.59a9.134,9.134,0,0,0-7.374,3.744h14.748A9.135,9.135,0,0,0,1529.187,492.59Z" transform="translate(-1521.813 -492.59)" fill="#2683e8"/></g></g></g></svg>