<svg xmlns="http://www.w3.org/2000/svg" xmlns:xlink="http://www.w3.org/1999/xlink" width="1949" height="746" viewBox="0 0 1949 746"><defs><clipPath id="a"><rect width="1949" height="746" transform="translate(0 2074)" fill="#f8f8f9"/></clipPath></defs><g transform="translate(0 -2074)" clip-path="url(#a)"><g transform="translate(-1423.779 2567.881)" opacity="0.04"><g transform="translate(1526 -63.925)"><g transform="translate(0 0)"><g transform="translate(0 0)"><path d="M396.959,416.615c-37.618,43.193-72.409,107.228-27.19,156.152-22.773,47.816-18.706,85.119-.241,109.086,24.824,32.319,59.834,28.107,92.166,14.857,23.292-9.5,46.137-21.833,65.748-37.75,16.461-13.335,46.8-43.277,34.01-66.8-7.35-13.48-24.138-7.81-44.292-8.665-42.89-1.751-30.569-22.352-13.625-42.807,12.792-8.351,26.961-16.932,35.469,1.677l10.873-31.7c-25.657-15.773-40.754-.23-54.09,15.471-31.4,37.073-38.836,100.336,34.938,86.253,10.042-1.931,19.467,2.292,10.728,13.239-6.13,7.578-18.307,12.72-25.9,16.847a421.181,421.181,0,0,1-63.673,28.264c-23.75,8.05-47.259,10.583-67.727-7.651-23.365-20.915-19.225-45.727-7.953-90.32,2.438-2.739,4.742-5.117,6.891-7.265,14.024-14.167,21.059-17.39,24.667-44.8,2.065-15.86-1.073-23.365-7.734-1.846-6.445,20.757-22.531,32.86-33.176-.074-10.415-32.548,13.094-68.173,31.643-95.966,4.285-6.674,9.654-19.068-1.532-6.2" transform="translate(-348.359 -320.14)" fill="#211e1f" fill-rule="evenodd"/><path d="M435.882,507.243c-1.617-2.377-2.692,8.2-3.754,11.1-5.442,14.856-15.556,13.553-19.309-2.595-3.3-14.409,9.655-32.258,13.952-46.415,4.827-16.244,7.724-35.4,11.029-44.29a16.249,16.249,0,0,1,6.118-7.567c2.692-1.762,4.454-1.148,5.371,3.438l1.147,4.358c1.846,7.361.626,6.759,6.746,2.232,3.982-2.824,3.294-1.908,2.063-6.892a66.056,66.056,0,0,0-4.814-14.324l-2.462-5.431c-5.756-12.564-11.489-13.1-15.015,1.218-2.292,9.269-4.066,18.225-5.9,27.963-5.516-10.342-11.03-20.384-16.7-30.485-2.837-4.971-4.127-7.735-8.652-3.065-4.369,4.6-8.051,8.581-6.445,15.459,1.689,6.9,7.59,7.519,14.566,18.32,11.261,17.464,11.019,28.18-.844,52.318-5.359,10.945-9.727,22.435-7.979,34.382,5.372,37.461,30.2,33.479,32.875,4.828.531-5.213.846-10.271-1.991-14.555" transform="translate(-321.089 -330.732)" fill="#211e1f" fill-rule="evenodd"/><path d="M379.862,612.479l-15.171,24.513,33.261,25.27,15.4-19.9,23.81,13.312,17.862-26.344-33.007-21.446-15.954,21.29Z" transform="translate(-339.541 -213.854)" fill="#211e1f" fill-rule="evenodd"/><path d="M497.445,489.537c-2.293-.759-1.834-.073-4.126,3.223-1.994,3.053-3.851,6.275-3.525,9.945.3,3.45,2.293,4.912,5.962,8.665,4.912,4.9,11.959,12.021,13.951,15.918a62.753,62.753,0,0,1,2.522,7.748c1.159,4.054,3.68,2.752,3.91-3.682.3-6.432.459-20.746,4.683-25.126,2.677-2.824,6.045-2.824,9.8,1.691,1.993,2.377,2.137,2.75,2.065-1.691l-.229-13.323c-.06-3.512.157-3.21-2.607-5.744-14.785-13.022-8.58,23.291-20.371,22.06-1.075-.072-1-.773-1.993-3.6-2.063-5.985-5.586-14.554-10.04-16.087" transform="translate(-272.022 -280.552)" fill="#211e1f" fill-rule="evenodd"/><path d="M533.6,459.661l-11.489,29.712-35.18-23.956,9.813-27.045Z" transform="translate(-273.546 -305.367)" fill="#211e1f" fill-rule="evenodd"/><path d="M500.061,774.445l-74.318,10.8,107.492-67.4,12.105-7.591c15.471-12.021,25.657-19.912,36.772-30.931,24.9-24.74,16.545-35.084,3.753-64.952l-4.755-10.8,10.8-27.033,5.371,7.35c12.792,29.254,49.19,35.228,71.252,9.341,11.874-13.939-10.344-28.264-21.3-35.155-46.342-29.41-52.629-44.809-85.734-79.193l6.832-38.836C612.3,413.7,669.451,379.315,718.1,363.989c37.618-11.876,55.852-20.3,55.249,1.6-.772,29.495-31.716,81.269-45.594,108.917,25.754-70.311,68.113-113.2-23.208-79.807-45.811,16.689-82.052,36.99-121.358,61.572l24.969,20.915c-13.323,3.368-19.986,2.462-14.011,7.664,9.413,8.193,20.914,16.3,30.871,24.136l25.6,21.2c11.406,9.5,16.775,13.554,20.987,18.923,14.712,18.61,15.857,29.555,11.5,44.182-12.575,41.6-33.489,40.985-70.189,41.986,1.761,34.926-22.146,57.59-17.077,82.259a50.692,50.692,0,0,0,21.977,31.775c26.211,16.933,59.533,5.444,89.33-12.792,27.817-16.921,48.647-33.007,67.281-59.353l-6.132-17.547-15.555-29.1,8.122-27.648c20.541,31.775,25.97,30.4,62.212,21.6L805.449,429.243l-7.435-14.857,10.8-27.649,37.219,71.578-3.428,1.34-20.927-9.425,15.555,164.757c6.446-3.765,21.99-12.407,29.038-11.574,29.881,3.439,24.22,42.517,6.733,69.7-17.077,26.586-26.49,18.222-43.892-23.654-20.142,6.5-24.125,6.878-45.27,7.422.991,53.692-17.474,67.474-62.669,98.2-38.619,26.333-87.955,48.4-120.057,14.313-13.335-14.094-15.1-29.326-17.1-61.971ZM866.66,632.75c-6.517-3.608-12.033-3.451-16.014,0-7.966,6.662-3.295,17.235,4.453,22.207,14.241,9.123,27.262-13.24,11.561-22.207" transform="translate(-306.581 -351.998)" fill="#211e1f" fill-rule="evenodd"/><path d="M605.576,541.186c-12.1,19.381-23.751,35.457-20.914,56,2.9,21.059,11.417,22.735,19.381,15.93,11.176-9.571,10.8-19.7,12.854-33.175-2.969,5.6-3.973,9.738-7.109,12.876-19.54,19.685-19.31-6.287-13.262-25.5,2.617-8.048,7.359-15.085,11.573-22.675,3.91-6.9,6.359-17.622-2.523-3.453" transform="translate(-221.017 -253.621)" fill="#211e1f" fill-rule="evenodd"/><path d="M703.554,445.889c-8.58,16.932-11.646,32.862-5.6,49.021,7.133,19.141,24.982,12.323,23.22-13.263-13.723,30.483-35.167-3.21-7.507-45.33,8.81-13.407,3.68-17.463-10.114,9.571" transform="translate(-161.324 -312.119)" fill="#211e1f" fill-rule="evenodd"/><path d="M597.7,439.988l-.386-4.6c8.579,6.2,21.53,12.021,22.834,23.666.687,6.2-1.762,12.093-5.674,19.309-3.282,5.962-7.808,9.871-15.844,5.345-4.684-2.595-6.361-7.807-5.829-16.533.531-10.5,5.829-15.326,4.9-27.189m5.213,15.313c-.386,1.909-.76,3.368-1.146,4.816-1.148,4.526-1.074,8.895,1.834,10.271,5.516,2.607,6.589-1.23,6.589-5.2,0-6.2-1.688-7.664-7.277-9.885" transform="translate(-216.442 -306.978)" fill="#211e1f" fill-rule="evenodd"/><path d="M767,587.715c-1.366-5.9-5.287-5.744-14.929-1.761-6.518,2.75-9.04,6.42-16.4,15.244-4.681,5.586-8.966,9.652-16.773,15.929-8.737,7.048-16.014,11.562-30.956,17.607a224.174,224.174,0,0,1-22.145,7.821L622.117,655.5l16.015-.771a142.923,142.923,0,0,0,34.395-6.277c34.262-10.185,44.437-17.618,66.979-43.433,5.577,6.734,13.4,20.6,21.674,8.666A46.9,46.9,0,0,0,766,603.563a26.089,26.089,0,0,0,1-15.847m-9.872,16.7c-2,.46-3.995-2.306-5.672-4.912-2.305-3.452-1.691-4.658,2.063-4.743,3.982-.157,6.045-.687,6.287,3.44.073,2.692-.157,5.671-2.679,6.215" transform="translate(-200.564 -227.231)" fill="#211e1f" fill-rule="evenodd"/><path d="M1326.587,630.783c25.521-3.755,71.794-9.643,91.635-25.973,3.67-3.053,6.128-7.192,9.351-11.1,7.823-9.487,26.648-15.7,29.257-.375,1.145,6.275.4,9.644-1.535,12.938-7.517,13.094-12.646,17.234-23.435,3.222-3.367-4.368-3.224-4.514-8.184-1-28.519,20.443-49.5,26.659-97.089,22.292m113.791-31.174c1.689,2.608,3.743,5.371,5.734,4.9,2.449-.544,2.677-3.6,2.619-6.275-.17-4.152-2.317-3.524-6.3-3.453-3.668.072-4.283,1.3-2.052,4.828" transform="translate(179.757 -226.717)" fill="#211e1f" fill-rule="evenodd"/><path d="M748.895,687.542c-.3-31.112-.3-57.53-4.514-86.784-5.286-36.458-10.571-72.457-15.4-108.917-3.15-24.04-4.213-47.633-5.746-71.842L713.125,402.45,726.6,379.484,765.886,455l-2.812.773L744.14,445.655c5.912,51.786,11.573,103.4,18.174,155.1,4.513,35.916,3.138,45.5-13.42,86.784" transform="translate(-151.431 -337.16)" fill="#211e1f" fill-rule="evenodd"/><path d="M805.485,660.788l-31.414-26.116L790,606.323l30.413,22.6,16.558-23.98,32.717,26.66-20.227,27.419-30.109-22.979Z" transform="translate(-118.528 -215.439)" fill="#211e1f" fill-rule="evenodd"/><path d="M890.768,655.075,858.351,629.1,875.9,602.758,911.682,629.1Z" transform="translate(-73.027 -216.62)" fill="#211e1f" fill-rule="evenodd"/><path d="M951.976,664.925l-36.157-28.566,14.567-30.714,31.7,21.59,13.866-22.29L1017.5,631.3l-14.181,26.647L965,635.358Z" transform="translate(-42.002 -215.439)" fill="#211e1f" fill-rule="evenodd"/><path d="M1028.081,365.453,820.3,480.959l-9.812,33.393,206.479-116.5Z" transform="translate(-98.867 -344.735)" fill="#211e1f" fill-rule="evenodd"/><path d="M778.6,383.567l-14.179,31.716L778.6,588.62l3.524,24.885c4.211,30.944,5.431,45.257,19,60.74,15.7,17.91,25.355,22.895,40.223,19.841,21.989-4.538,29.651-16.461,37.7-24.354,5.144-4.972,9.341-10.97,11.947-3.221a45.89,45.89,0,0,0,4.673,10.559c3.6,5.9,6.974,10.041,10.643,12.878,16.17,12.707,25.668,8.037,32.875-2.836,4.283-6.516,6.733-11.1,10.476-16.63,7.988-11.489,10.679-10.644,15.109-3.294,6.977,11.644,15.242,18.85,24.582,23.135,31.114,14.324,58.159,2.376,82.68-15.171,7.665-5.5,13.106-12.479,21.3-14.01,5.515-.918,6.214-.761,8.108,3.608,5.6,13.481,9.969,20.445,19.926,22.363,19.153,3.68,27.129-11.417,37.316-24.9,16.859-34.843,16.859-62.961,11.947-93.59-7.506-47.1-19.009-94.291-22.062-141.852l13.88,10.5,11.465,7.422-35.469-79.035L1123.21,391l12.564,20.613s-2.367,3.874-2.764,11.778c-.4,7.929,8.736,100.192,18.33,149.83,6.119,31.618,11.78,72.144-5.455,82.173-31.039,18.005-27.963-26.5-26.054-40.127l-32.417,22.965c-46.414,25.6-75.765,41.141-107.251,7.29-19.768-21.3-30.11-63.5-39.38-90.694l-6.746,34.781L951.284,631.5l2.366,9.112c-13.168,21.915-27.805,28.578-45.74,14.712-9.8-7.58-7.881-19.685-9.34-32.32-17.078,12.491-37.848,30.944-59.136,33.925-10.281,1.459-20.093-1.22-27.9-12.335-5.9-8.411-7.965-20.673-10.56-36.518-4.609-28.119-6.143-60.825-8.737-85.023Z" transform="translate(-123.739 -344.624)" fill="#211e1f" fill-rule="evenodd"/><path d="M812.87,383.461c-6.589,15.326-9.039,20.6-10.5,31.933a63.254,63.254,0,0,0-.542,13.108c.858,8.882,3.452,14.7,8.822,16.618,17.307,6.274,21.145-19.3,23.292-30.714-3.608,5.274-12.334,23.2-20.54,18.838-1.677-.917-3.139-2.993-4.285-6.578-.917-2.69-.687-5.454-.687-10.656,0-10.945,1.917-19.527,4.44-32.549" transform="translate(-103.62 -335.012)" fill="#211e1f" fill-rule="evenodd"/><path d="M853.827,453.695c-5.828,11.175-22.531,54.137-5.37,61.874,16.776,7.591,18.007-14.084,21.071-25.259-3.983,5.057-10.342,16.3-18.151,11.4-9.653-6.131.072-39.137,2.45-48.02" transform="translate(-82.44 -297.095)" fill="#211e1f" fill-rule="evenodd"/><path d="M974.537,481.243c-20.854,41.745-4.452,90.465,12.262,57.145,2.739-5.661,3.439-13.022,4.731-17.694-3.972,4.985-7.266,16-15.087,11.031-9.728-6.13-4.355-41.672-1.906-50.482" transform="translate(-15.595 -282.223)" fill="#211e1f" fill-rule="evenodd"/><path d="M1039.078,571.475c-29.194,40.827-16.848,93.675,2.522,80.882,11.8-7.808,12.029-20.3,15.471-31.932-4.887,5.96-7.493,14.7-18.464,12.937-16.245-2.595-4.514-49.323.471-61.887" transform="translate(15.168 -233.509)" fill="#211e1f" fill-rule="evenodd"/><path d="M1139.049,439.815c-29.256,40.742-16.935,93.673,2.533,80.882,11.8-7.821,12.032-20.287,15.4-32.017-4.9,5.973-7.432,14.71-18.391,12.948-16.246-2.534-4.587-49.251.46-61.813" transform="translate(69.111 -304.589)" fill="#211e1f" fill-rule="evenodd"/><path d="M1197.491,570.977c-44.892,37.533-9.969,126.38,12.721,47.562-4.911,5.973-8.712,18.767-19.236,15.314-20.131-6.649,1.545-50.312,6.516-62.876" transform="translate(98.321 -233.778)" fill="#211e1f" fill-rule="evenodd"/><path d="M1312.481,437.924c-36.205,40.44,2.534,121.479,18.318,45.039-4.9,5.974-7.276,17.307-17.533,12.95-14.025-5.987-5.758-45.426-.785-57.989" transform="translate(164.051 -305.609)" fill="#211e1f" fill-rule="evenodd"/><path d="M823.049,561.647c-1.231-32.936-7.58-56.529-21.916-65.568l7.734-22.591c22.231,24.123,27.977,53.161,14.182,88.16" transform="translate(-103.918 -286.409)" fill="#211e1f" fill-rule="evenodd"/><path d="M914.322,547.363c51.641-27.191,69.5-41.516,83.452-93.145,3.584-13.552,9.718-22.049,14.774-3.3,1.989,7.362.83,7.894,5.212,1.847l3.741-5.212c4.683-6.517,2.69-5.975-.676-13.782a210.2,210.2,0,0,0-9.727-20.215c-7.966-14.252-14.108-6.057-14.482,6.349l-.6,18.307c-.542,16.619-5.226,20.528-12.66,2.825a94.2,94.2,0,0,0-6.275-13.1c-4.815-8.266-10.873-13.166-13.722,3.525a56.25,56.25,0,0,0-.676,15.556c13.407,6.348,17.465,9.136,19.924,18.294,2.45,9.184-9.062,26.661-23.291,41.9-12.635,13.492-24.765,23.98-44.991,40.14" transform="translate(-42.811 -322.826)" fill="#211e1f" fill-rule="evenodd"/><path d="M1348.429,540.5c67.5-23.894,82.823-36.458,92.854-89.389,2.62-13.782,9.112-26.8,14.181-8.026,1.991,7.35.845,7.954,5.214,1.834l3.754-5.212c4.681-6.505,2.691-5.975-.762-13.794A204.631,204.631,0,0,0,1454,405.694c-7.978-14.251-14.084-6.045-14.483,6.361l-.614,18.307c-.978,21.216-9.111,32.934-16,9.956-1.379-4.754-3.9-9.125-6.276-13.178-4.911-8.194-10.871-13.094-13.724,3.6a59.473,59.473,0,0,0-.771,15.556c15.108,7.036,25.984,18.379,17.935,35.687-9.715,20.758-42.59,42.287-71.639,58.518" transform="translate(191.55 -327.07)" fill="#211e1f" fill-rule="evenodd"/><path d="M1082.784,378.861c-33.284,41.275-45.124,96.959-25.307,117.619-3.139,10.463-18.416,74.908,13.166,103.148,11.948,11.4,26.757,16,42.53,18.682-12.491,21.433-22.146,36.76-29.895,56.528-4.741,12.093-7.35,21.06-8.269,29.929-1.617,16.256.362,29.12,6.218,38.933,12.78,21.505,32.247,24.5,50.868,17.307,13.335-5.214,38.221-30.957,59.6-53.862,18.093-19.286,25.43-26.72,38.14-35,19.658-12.659,32.4-17.475,38.242-19.068,39.006-10.644,48.949,10.416,73.641,36.156-7.613,19.684-19.248,40.43-18.8,61.271,10.642-19.755,20.069-40.151,30.883-56.3,55.319,12.491,121.36,19,172.841-10.572,15.254-8.725,22.846-16.92,36.484-33.237,12.105-14.481,10.027-9.57,17.463,1.535,17.849,26.731,51.193,40.983,64.335.687,5.83-17.836,5.07-39.294-6.19-53.62-13.626-17.45-36.545-12.332-54.706,8.739l-20.08,23.363c-16.148,20.445-42.047,37.3-68.561,40.285-13.856,1.532-19.214-.917-2.68-17.305,12.321-12.262,23.448-24.9,25.5-43.436,2.016-17.305-4.815-33.851-23.2-44.423-17.631-10.113-40.838-4.356-66.58,14.325-28.506,20.685-50.774,53.066-70.252,81.4-12.79-5.6-11.969-7.867-21.385-18.054-19.453-21.072-34.021-33.249-70.405-21.228-17.621,5.757-31.8,14.941-47.974,30.183-12.863,12.1-23.436,24.2-38.521,39.452-19.164,19.213-39.852,37.364-56.383,42.734-11.1,3.6-21.855,2.45-30.124-8.123-3.582-4.585-5.356-11.707-5.356-22.664,0-7.35,1.99-13.794,7.046-26.815,7.665-20.144,18.454-37.69,30.872-57.29,73.641,1.388,139.605-6.662,207.793-38.135,41.516-19.068,47.742-55.7,24.063-98.888-8.2-14.94-20.625-26.659-38.39-36-11.97-6.276-23.907-7.737-35.793,8.581-6.192,8.508-7.592,20.455-9.271,37.992-2.062,22.362,4.067,29.724,39.766,25.813,9.885-1.061,19.093-2.063,25.754-1.846,8.74.314,12.406,3.066,17.367,18.622,4.238,13.324-16.461,20.673-41.527,27.263-62.344,16.472-113.3,29.954-178.418,26.875-17.006-.76-33.212-2.522-50.313-13.4-23.124-14.784-24.546-34.01-18.478-76.814,14.7-12.419,21.83-14.483,27.577-33.406,2.147-6.806,2.607-11.876,3.053-24.124-4.512,7.276-11.971,21.457-18.692,26.2-7.725,5.359-13.927-4.176-15.846-20.95-2.572-23.848,10.8-43.808,21.165-67.1,1.631-3.694-.563-4.971-2.979-1.968m241.681,115.591c6.675-8.954-18.1-37.363-32.873-20.129-10.62,12.405,4.828,22.205,18.247,23.8,6.276.7,12.1-.29,14.626-3.669m46.887,172.505c42.213,8.811,73.773,1.448,109.484-20.153,16.159-9.8,25.973-22.147,7.2-42.892-5.212-5.829-12.334-10.029-21.83-12.105-17.936-4.067-62.588,18.743-94.857,75.15m261.109-22.531c3.138-1,2.752-2.377.615-9.426-2.075-7.047-3.669-10.717-11.743-17.993-10.026-8.968-17.063-9.2-25.861,1.146-17.8,20.843,22.363,30.944,36.989,26.274" transform="translate(29.268 -338.398)" fill="#211e1f" fill-rule="evenodd"/><path d="M1187.737,461.822l-31.11-27.346,11.888-26.345,32.788,26.043Z" transform="translate(88.003 -321.694)" fill="#211e1f" fill-rule="evenodd"/><path d="M1307.724,447.043l187.17-87.157-21.228,32.391-184.5,86.181Z" transform="translate(159.556 -347.74)" fill="#211e1f" fill-rule="evenodd"/><path d="M1116.617,431.3l45.062-27.577c16.7-10.186,19.528-12.792-3.138-15.473-13.01-1.46-25.136-1.073-39.765-1.387l16.39-23.811,36.541-.988c25.284-.7,30.884-2.921,25.441,12.707-7.2,20.757-20.456,31.475-36.459,40.514-17.788,10.113-24.448,11.658-44.072,16.015" transform="translate(66.402 -346.848)" fill="#211e1f" fill-rule="evenodd"/><path d="M1262.993,372.087c-5.489,8.654-2.437,13.1,4.308,18.682,3.683,2.993,5.664,4.37,7.194,5.829,5.057,4.912,5.757,11.646,5.9,18.452.146,8.424-.458,7.664,7.12,1.847,9.5-7.29,11.429-12.262,12.962-24.824,1.737-14.857,9.425-11.718,11.719.458l1.218,6.819,9.969-16.7c-2.692-9.341-4.151-13.4-9.642-21.735-5.744-8.508-11.127-11.888-15.052,6.348-1.206,5.515-2.04,10.645-3.053,17.234-.978,5.975-2.981,11.259-8.881,15.254-4.672-7.674-3.814-8.049-5.892-16.629-2.823-11.875-8.289-26.044-17.873-11.031" transform="translate(143.9 -350.905)" fill="#211e1f" fill-rule="evenodd"/><path d="M616.816,484.146l-.47,17.391,74.738-63.926-.471-16.92Z" transform="translate(-203.68 -314.913)" fill="#211e1f"/><path d="M507.109,651.264c5.07,15.737,18.659,14.88,25.176,8.123,9.281-9.475,6.022-17.017,4.391-27.589-1.628,4.745-1.64,9.956-4.186,12.817-12.8,14.336-19.214-6.239-17.742-14.614,2.221-12.649,19.069-41.239,8.208-27.262,0,0-23.257,25.547-15.848,48.526" transform="translate(-263.441 -218.66)" fill="#211e1f" fill-rule="evenodd"/><g transform="translate(3.69 532.312)"><path d="M406.991,760.472a36,36,0,0,1-6.119,3.759,30.892,30.892,0,0,1-7.181,2.41,42.216,42.216,0,0,1-8.625.819,34.275,34.275,0,0,1-13.686-2.7,33.327,33.327,0,0,1-18.023-18.41,37.346,37.346,0,0,1-.048-27.274,33.6,33.6,0,0,1,18.167-18.65,35.145,35.145,0,0,1,14.071-2.745,42.686,42.686,0,0,1,8.432.769,34.516,34.516,0,0,1,6.988,2.168,32.739,32.739,0,0,1,5.88,3.327,46.166,46.166,0,0,1,5.108,4.242l-7.615,8.767a38.04,38.04,0,0,0-8.577-6.071,22.365,22.365,0,0,0-10.312-2.312,21.094,21.094,0,0,0-8.914,1.879,22.069,22.069,0,0,0-7.085,5.107,22.949,22.949,0,0,0-4.626,7.567,26.206,26.206,0,0,0-1.639,9.347,26.621,26.621,0,0,0,1.639,9.4,23.372,23.372,0,0,0,4.626,7.66,21.7,21.7,0,0,0,7.085,5.157,21.109,21.109,0,0,0,8.914,1.879,22.265,22.265,0,0,0,10.6-2.361,41.716,41.716,0,0,0,8.769-6.41l7.615,7.711A43.483,43.483,0,0,1,406.991,760.472Z" transform="translate(-350.755 -697.684)" fill="#231f20"/><path d="M461.326,709.133H423.16v17.348h33.83v10.7H423.16V755.2h38.647v10.7H411.4V698.435h49.924Z" transform="translate(-318.013 -697.279)" fill="#231f20"/><path d="M512.823,698.435h11.759V765.9h-9.906l-37.126-48v48H465.792V698.435h10.964l36.066,46.647Z" transform="translate(-288.65 -697.279)" fill="#231f20"/><path d="M557.971,765.9h-11.95V709.421h-21.4V698.435h54.742v10.986h-21.4Z" transform="translate(-256.888 -697.279)" fill="#231f20"/><path d="M624.04,765.9l-16.63-23.515H592.523V765.9H580.766V698.435h30.07a34.243,34.243,0,0,1,10.456,1.494,22.749,22.749,0,0,1,7.9,4.239,18.292,18.292,0,0,1,4.963,6.747,24.019,24.019,0,0,1,.532,16.48,19.579,19.579,0,0,1-3.325,5.88,20.061,20.061,0,0,1-5.061,4.337,25.1,25.1,0,0,1-6.506,2.747L638.014,765.9Zm-3.868-53.912q-3.669-2.851-10.344-2.853h-17.3v22.744h17.4q6.379,0,10.15-3.1a10.219,10.219,0,0,0,3.771-8.325Q623.847,714.844,620.171,711.986Z" transform="translate(-226.578 -697.279)" fill="#231f20"/><path d="M705.135,766.066H692.606l-6.842-16.287h-31.9l-6.937,16.287H634.778l29.685-67.945H675.45Zm-35.372-53.778L658.2,739.274h23.228Z" transform="translate(-197.419 -697.448)" fill="#231f20"/><path d="M700.433,698.435h11.758V755.2h35.468v10.7H700.433Z" transform="translate(-161.973 -697.279)" fill="#231f20"/><path d="M829.354,703.069a15.155,15.155,0,0,1,5.964,12.647,17.225,17.225,0,0,1-.812,5.5,15.7,15.7,0,0,1-2.1,4.2,14.957,14.957,0,0,1-3.061,3.137,25.76,25.76,0,0,1-3.583,2.317,33.749,33.749,0,0,1,5.412,2.454,17.438,17.438,0,0,1,4.216,3.319,13.4,13.4,0,0,1,2.73,4.571,17.917,17.917,0,0,1,.958,6.109,17.249,17.249,0,0,1-1.778,7.986,16.321,16.321,0,0,1-5.051,5.821,23.5,23.5,0,0,1-7.888,3.561,40.559,40.559,0,0,1-10.2,1.2H782.985V698.435h30.208Q823.392,698.435,829.354,703.069ZM820.1,724.685q3.459-2.276,3.458-7.023a7.587,7.587,0,0,0-3.025-6.443q-3.029-2.279-8.792-2.277h-17v18.021h16.137Q816.645,726.961,820.1,724.685Zm3.758,28.348a7.916,7.916,0,0,0,3.459-6.986,7.79,7.79,0,0,0-3.413-6.746q-3.411-2.408-10.424-2.412H794.744V755.4h19.6Q820.4,755.4,823.861,753.033Z" transform="translate(-117.406 -697.279)" fill="#231f20"/><path d="M907.291,766.066H894.764l-6.845-16.287h-31.9l-6.938,16.287H836.936l29.684-67.945h10.988ZM871.92,712.288l-11.564,26.986h23.229Z" transform="translate(-88.279 -697.448)" fill="#231f20"/><path d="M949.622,698.435H961.38V765.9h-9.906l-37.125-48v48H902.59V698.435h10.966l36.066,46.647Z" transform="translate(-52.834 -697.279)" fill="#231f20"/><path d="M1024.21,765.9h-14.361l-23.035-30.357-10.506,10.794V765.9H964.553V698.435h11.755v33.926l32.095-33.926h14.554l-28.044,29.009Z" transform="translate(-19.382 -697.279)" fill="#231f20"/><path d="M1119.745,745.967a33.948,33.948,0,0,1-7.325,11.133,35.174,35.174,0,0,1-25.442,10.359,36.111,36.111,0,0,1-14.265-2.746A33.492,33.492,0,0,1,1054.4,746.16a36.3,36.3,0,0,1,0-26.984,33.872,33.872,0,0,1,7.327-11.133,35.125,35.125,0,0,1,25.442-10.358,36.115,36.115,0,0,1,14.265,2.745,33.478,33.478,0,0,1,18.312,18.554,36.3,36.3,0,0,1,0,26.985Zm-11.519-22.6a23.618,23.618,0,0,0-4.722-7.661,22.506,22.506,0,0,0-7.275-5.2,23.315,23.315,0,0,0-18.455-.049,21.789,21.789,0,0,0-7.181,5.107,23.487,23.487,0,0,0-4.677,7.614,26.514,26.514,0,0,0,0,18.6,23.562,23.562,0,0,0,4.723,7.662,22.415,22.415,0,0,0,7.278,5.206,23.323,23.323,0,0,0,18.455.047,21.794,21.794,0,0,0,7.181-5.108,23.483,23.483,0,0,0,4.673-7.613,26.46,26.46,0,0,0,0-18.6Z" transform="translate(27.72 -697.684)" fill="#231f20"/><path d="M1169.572,709.133h-38.358v18.6h34.021v10.7h-34.021V765.9h-11.758V698.435h50.116Z" transform="translate(64.245 -697.279)" fill="#231f20"/><path d="M1204.324,698.435h11.758V755.2h35.465v10.7h-47.223Z" transform="translate(110.063 -697.279)" fill="#231f20"/><path d="M1267.779,698.435V765.9h-11.758V698.435Z" transform="translate(137.974 -697.279)" fill="#231f20"/><path d="M1334.31,703.069a15.151,15.151,0,0,1,5.966,12.647,17.18,17.18,0,0,1-.815,5.5,15.6,15.6,0,0,1-2.1,4.2,14.957,14.957,0,0,1-3.061,3.137,25.976,25.976,0,0,1-3.584,2.317,33.679,33.679,0,0,1,5.411,2.454,17.463,17.463,0,0,1,4.217,3.319,13.422,13.422,0,0,1,2.731,4.571,17.976,17.976,0,0,1,.959,6.109,17.225,17.225,0,0,1-1.781,7.986,16.3,16.3,0,0,1-5.049,5.821,23.531,23.531,0,0,1-7.89,3.561,40.575,40.575,0,0,1-10.2,1.2h-31.173V698.435h30.209Q1328.347,698.435,1334.31,703.069Zm-9.251,21.615a7.824,7.824,0,0,0,3.458-7.023,7.582,7.582,0,0,0-3.027-6.443q-3.026-2.279-8.789-2.277h-17v18.021h16.138Q1321.6,726.961,1325.059,724.685Zm3.756,28.348a7.914,7.914,0,0,0,3.462-6.986,7.791,7.791,0,0,0-3.415-6.746q-3.412-2.408-10.425-2.412H1299.7V755.4H1319.3Q1325.354,755.4,1328.814,753.033Z" transform="translate(155.204 -697.279)" fill="#231f20"/><path d="M1378.008,765.9h-11.954V739.3l-26.791-40.865h13.974l18.889,29.878,19.083-29.878H1404.8l-26.789,40.575Z" transform="translate(182.914 -697.279)" fill="#231f20"/><path d="M1460.815,766.066h-12.53l-6.843-16.287h-31.9l-6.937,16.287h-12.143l29.683-67.945h10.986Zm-35.369-53.778-11.567,26.986h23.227Z" transform="translate(210.554 -697.448)" fill="#231f20"/></g></g></g></g></g></g></svg>